<?xml version="1.0" encoding="UTF-8"?>
<svg xmlns="http://www.w3.org/2000/svg" xmlns:xlink="http://www.w3.org/1999/xlink" width="100px" height="px" viewBox="0 0 100 50" version="1.1">
<g id="surface1">
<path style=" stroke:none;fill-rule:nonzero;fill:rgb(3.921569%,3.529412%,30.196078%);fill-opacity:1;" d="M 89.300781 33.628906 C 89.40625 33.203125 89.007812 32.800781 88.742188 33.066406 C 88.414062 33.394531 88.191406 33.261719 88.285156 32.796875 C 88.34375 32.515625 88.3125 32.355469 88.210938 32.355469 C 87.925781 32.355469 88.027344 31.941406 88.371094 31.703125 C 88.550781 31.574219 88.996094 31.472656 89.363281 31.472656 C 89.726562 31.46875 90.125 31.398438 90.246094 31.3125 C 90.417969 31.191406 90.378906 31.175781 90.074219 31.242188 C 89.859375 31.289062 89.503906 31.257812 89.285156 31.175781 C 88.988281 31.0625 88.78125 31.082031 88.445312 31.25 C 87.886719 31.527344 87.898438 31.53125 87.898438 31.1875 C 87.898438 30.992188 87.777344 30.890625 87.519531 30.859375 L 87.140625 30.8125 L 87.464844 30.46875 C 87.804688 30.101562 88.179688 30.09375 89.183594 30.417969 C 89.839844 30.628906 89.78125 30.421875 89.078125 30.023438 C 88.414062 29.652344 87.957031 29.132812 86.265625 26.84375 C 84.46875 24.40625 84.335938 24.09375 84.257812 22.035156 L 84.191406 20.3125 L 83.257812 19.21875 C 82.746094 18.617188 82.257812 18.085938 82.175781 18.035156 C 82.09375 17.984375 81.695312 17.902344 81.289062 17.855469 C 80.453125 17.753906 80.402344 17.636719 80.859375 16.859375 C 81.222656 16.246094 81.695312 16.175781 82.386719 16.632812 C 82.628906 16.792969 82.925781 16.917969 83.046875 16.914062 C 83.183594 16.910156 83.140625 16.84375 82.9375 16.746094 C 82.753906 16.660156 82.605469 16.539062 82.605469 16.484375 C 82.605469 16.316406 84.542969 16.191406 85.109375 16.320312 C 86.277344 16.589844 86.65625 17.003906 86.855469 18.230469 C 86.988281 19.066406 87.074219 19.230469 87.679688 19.800781 C 88.050781 20.152344 88.730469 20.617188 89.191406 20.839844 C 89.652344 21.058594 90.296875 21.453125 90.625 21.714844 C 91.398438 22.332031 92.617188 24.109375 93.03125 25.226562 C 93.210938 25.710938 93.429688 26.195312 93.519531 26.304688 C 93.761719 26.59375 93.371094 26.792969 92.746094 26.691406 C 92.464844 26.648438 91.902344 26.609375 91.496094 26.601562 C 91.09375 26.59375 90.675781 26.519531 90.566406 26.433594 C 90.296875 26.214844 89.578125 24.589844 89.449219 23.902344 C 89.21875 22.679688 88.78125 22.230469 87.234375 21.628906 C 86.125 21.195312 86.042969 21.132812 85.449219 20.203125 C 84.902344 19.351562 84.800781 18.710938 85.214844 18.742188 C 85.640625 18.777344 85.527344 18.203125 85.0625 17.984375 C 84.75 17.832031 84.542969 17.824219 84.164062 17.949219 C 83.835938 18.058594 83.472656 18.066406 83.066406 17.976562 C 82.734375 17.898438 82.460938 17.871094 82.460938 17.914062 C 82.460938 17.953125 82.800781 18.359375 83.21875 18.816406 C 84.441406 20.148438 84.539062 20.367188 84.425781 21.515625 C 84.363281 22.183594 84.386719 22.574219 84.503906 22.714844 C 84.597656 22.828125 84.660156 22.976562 84.644531 23.046875 C 84.632812 23.113281 84.726562 23.417969 84.863281 23.71875 C 84.996094 24.019531 85.105469 24.363281 85.105469 24.488281 C 85.105469 24.613281 85.207031 24.714844 85.335938 24.714844 C 85.507812 24.714844 85.539062 24.796875 85.460938 25.042969 C 85.375 25.316406 85.390625 25.34375 85.566406 25.199219 C 85.738281 25.058594 85.808594 25.113281 85.964844 25.492188 C 86.070312 25.75 86.21875 26.117188 86.292969 26.308594 C 86.371094 26.496094 86.5625 26.6875 86.714844 26.726562 C 86.875 26.769531 87.039062 26.980469 87.085938 27.207031 C 87.136719 27.429688 87.296875 27.742188 87.445312 27.902344 C 87.59375 28.058594 87.757812 28.332031 87.8125 28.503906 C 87.949219 28.9375 88.613281 29.378906 89.226562 29.449219 C 89.609375 29.496094 89.734375 29.578125 89.734375 29.792969 C 89.734375 29.949219 89.808594 30.0625 89.902344 30.046875 C 89.996094 30.027344 90.152344 30.109375 90.25 30.230469 C 90.351562 30.347656 90.5 30.445312 90.585938 30.445312 C 90.671875 30.445312 90.585938 30.28125 90.394531 30.078125 C 90.207031 29.875 90.09375 29.667969 90.144531 29.617188 C 90.195312 29.566406 90.410156 29.734375 90.625 29.988281 C 91.054688 30.496094 91.542969 30.8125 91.6875 30.671875 C 91.738281 30.621094 91.484375 30.324219 91.125 30.011719 C 90.761719 29.699219 90.515625 29.394531 90.578125 29.335938 C 90.636719 29.273438 90.851562 29.382812 91.050781 29.578125 C 92.023438 30.519531 92.8125 31.03125 93.28125 31.03125 C 93.503906 31.03125 93.503906 31.007812 93.269531 30.746094 C 93.125 30.589844 93.050781 30.398438 93.101562 30.316406 C 93.152344 30.238281 93.125 30.128906 93.046875 30.082031 C 92.964844 30.03125 92.59375 29.398438 92.21875 28.671875 C 91.84375 27.945312 91.410156 27.285156 91.257812 27.203125 C 90.710938 26.910156 91.003906 26.816406 92.398438 26.847656 L 93.816406 26.875 L 95.039062 28.175781 C 95.710938 28.894531 96.234375 29.503906 96.203125 29.53125 C 96.175781 29.5625 96.015625 29.515625 95.855469 29.429688 C 95.445312 29.210938 95.40625 29.226562 95.496094 29.5625 C 95.582031 29.890625 95.394531 29.949219 95.128906 29.683594 C 95.03125 29.585938 94.902344 29.558594 94.84375 29.621094 C 94.78125 29.683594 95.125 30.09375 95.605469 30.53125 C 96.121094 31 96.421875 31.375 96.339844 31.445312 C 96.148438 31.613281 93.019531 31.40625 92.636719 31.199219 C 92.464844 31.105469 92.054688 31.03125 91.726562 31.03125 C 91.230469 31.03125 91.128906 31.082031 91.128906 31.324219 C 91.128906 31.910156 90.648438 32.785156 90.007812 33.371094 C 89.644531 33.699219 89.316406 33.972656 89.28125 33.972656 C 89.242188 33.972656 89.253906 33.816406 89.300781 33.628906 Z M 90.003906 32.675781 C 89.941406 32.480469 89.957031 32.472656 90.070312 32.632812 C 90.1875 32.796875 90.257812 32.765625 90.441406 32.484375 C 90.5625 32.292969 90.6875 32.003906 90.714844 31.839844 C 90.753906 31.59375 90.691406 31.554688 90.320312 31.597656 C 89.792969 31.660156 89.382812 31.859375 89.035156 32.222656 C 88.71875 32.550781 88.710938 32.648438 89 32.648438 C 89.121094 32.648438 89.332031 32.777344 89.46875 32.9375 C 89.753906 33.269531 90.136719 33.085938 90.003906 32.675781 Z M 89.492188 32.203125 C 89.859375 31.898438 90.101562 31.832031 90.101562 32.039062 C 90.101562 32.15625 89.453125 32.507812 89.25 32.496094 C 89.191406 32.492188 89.300781 32.363281 89.492188 32.203125 Z M 94.582031 30.152344 C 94.53125 30.070312 94.425781 30.003906 94.34375 30.003906 C 94.265625 30.003906 94.238281 30.070312 94.289062 30.152344 C 94.339844 30.230469 94.445312 30.296875 94.527344 30.296875 C 94.605469 30.296875 94.632812 30.230469 94.582031 30.152344 Z M 94.128906 28.296875 C 94.527344 28.144531 94.382812 27.949219 93.9375 28.039062 C 93.699219 28.085938 93.472656 28.054688 93.417969 27.960938 C 93.28125 27.742188 93 27.753906 93.074219 27.980469 C 93.109375 28.078125 93.296875 28.203125 93.492188 28.257812 C 93.6875 28.3125 93.859375 28.363281 93.871094 28.371094 C 93.886719 28.378906 94.003906 28.347656 94.128906 28.296875 Z M 92.746094 27.519531 C 92.746094 27.449219 92.640625 27.351562 92.511719 27.300781 C 92.152344 27.164062 92.105469 27.191406 92.304688 27.433594 C 92.507812 27.675781 92.746094 27.726562 92.746094 27.519531 Z M 90.863281 25.710938 C 90.757812 25.605469 90.6875 25.597656 90.6875 25.6875 C 90.6875 25.882812 90.863281 26.058594 90.960938 25.960938 C 91.003906 25.917969 90.957031 25.804688 90.863281 25.710938 Z M 91.261719 25.238281 C 91.007812 24.984375 90.050781 24.421875 89.984375 24.484375 C 89.941406 24.53125 89.933594 24.585938 89.964844 24.613281 C 90 24.636719 90.21875 24.804688 90.453125 24.980469 C 90.796875 25.242188 91.484375 25.460938 91.261719 25.238281 Z M 92.304688 24.863281 C 92.304688 24.6875 91.765625 24.339844 91.277344 24.199219 C 90.945312 24.105469 90.960938 24.140625 91.421875 24.546875 C 91.941406 25 92.304688 25.128906 92.304688 24.863281 Z M 90.863281 22.476562 C 90.757812 22.371094 90.6875 22.363281 90.6875 22.457031 C 90.6875 22.652344 90.863281 22.824219 90.960938 22.726562 C 91.003906 22.6875 90.957031 22.574219 90.863281 22.476562 Z M 89.808594 21.710938 C 89.808594 21.675781 89.742188 21.605469 89.660156 21.554688 C 89.578125 21.503906 89.511719 21.535156 89.511719 21.621094 C 89.511719 21.703125 89.578125 21.773438 89.660156 21.773438 C 89.742188 21.773438 89.808594 21.746094 89.808594 21.710938 Z M 87.835938 21.109375 C 87.53125 20.882812 87.363281 20.917969 87.523438 21.175781 C 87.578125 21.261719 87.730469 21.332031 87.867188 21.328125 C 88.085938 21.324219 88.082031 21.296875 87.835938 21.109375 Z M 84.515625 17.21875 C 84.515625 17.140625 84.445312 17.074219 84.363281 17.074219 C 84.277344 17.074219 84.246094 17.140625 84.296875 17.21875 C 84.347656 17.300781 84.417969 17.367188 84.453125 17.367188 C 84.488281 17.367188 84.515625 17.300781 84.515625 17.21875 Z M 81.726562 17.074219 C 81.726562 16.992188 81.578125 16.925781 81.394531 16.929688 C 81.128906 16.929688 81.105469 16.957031 81.285156 17.074219 C 81.570312 17.257812 81.726562 17.257812 81.726562 17.074219 Z M 90.050781 29.023438 C 89.996094 28.96875 89.953125 28.828125 89.953125 28.710938 C 89.953125 28.539062 89.996094 28.53125 90.175781 28.679688 C 90.296875 28.78125 90.394531 28.921875 90.394531 28.992188 C 90.394531 29.144531 90.191406 29.164062 90.050781 29.023438 Z M 88.039062 26.785156 C 87.757812 26.550781 87.582031 26.304688 87.652344 26.234375 C 87.71875 26.167969 87.839844 26.230469 87.917969 26.375 C 88 26.519531 88.226562 26.699219 88.421875 26.777344 C 88.617188 26.851562 88.777344 26.976562 88.777344 27.0625 C 88.777344 27.308594 88.574219 27.234375 88.039062 26.785156 Z M 79.707031 17.464844 L 79.234375 17.292969 L 79.609375 16.816406 C 79.882812 16.464844 80.101562 16.339844 80.425781 16.339844 C 80.667969 16.339844 80.84375 16.386719 80.8125 16.449219 C 80.78125 16.507812 80.640625 16.804688 80.503906 17.109375 C 80.363281 17.414062 80.234375 17.65625 80.21875 17.648438 C 80.199219 17.644531 79.96875 17.558594 79.707031 17.464844 Z M 79.707031 17.464844 "/>
<path style=" stroke:none;fill-rule:nonzero;fill:rgb(3.921569%,3.529412%,30.196078%);fill-opacity:1;" d="M 15.996094 1.65625 L 16.714844 1.65625 C 17.519531 1.65625 17.773438 1.78125 18.023438 2.308594 C 18.351562 3.027344 18.351562 3.027344 18.554688 3.027344 L 18.84375 3.027344 L 18.84375 0.921875 C 18.515625 1.050781 18.25 1.085938 17.847656 1.085938 L 12.933594 1.085938 C 12.390625 1.085938 12.175781 1.050781 11.898438 0.921875 L 11.898438 3.027344 L 12.289062 3.027344 C 12.414062 3.027344 12.492188 2.929688 12.554688 2.664062 C 12.742188 1.894531 13.082031 1.65625 13.964844 1.65625 L 14.757812 1.65625 L 14.757812 8.5 C 14.757812 8.867188 14.671875 8.980469 14.367188 9.027344 L 14.242188 9.042969 C 14.089844 9.066406 14.015625 9.144531 14.015625 9.28125 L 14.015625 9.496094 L 16.738281 9.496094 L 16.738281 9.28125 C 16.738281 9.144531 16.664062 9.066406 16.539062 9.042969 L 16.398438 9.027344 C 16.097656 8.992188 15.996094 8.867188 15.996094 8.5 Z M 15.996094 1.65625 "/>
<path style=" stroke:none;fill-rule:nonzero;fill:rgb(3.921569%,3.529412%,30.196078%);fill-opacity:1;" d="M 20.902344 4.882812 C 21.207031 4.464844 21.808594 4.175781 22.378906 4.175781 C 22.730469 4.175781 23.058594 4.289062 23.285156 4.515625 C 23.511719 4.730469 23.585938 4.957031 23.585938 5.460938 L 23.585938 8.398438 C 23.585938 8.851562 23.5625 8.902344 23.222656 8.992188 L 23.160156 9.015625 C 23.03125 9.054688 22.984375 9.117188 22.984375 9.269531 L 22.984375 9.496094 L 25.339844 9.496094 L 25.339844 9.269531 C 25.339844 9.117188 25.289062 9.027344 25.175781 9.015625 L 25.074219 8.992188 C 24.761719 8.902344 24.722656 8.851562 24.722656 8.398438 L 24.722656 5.308594 C 24.722656 4.753906 24.570312 4.378906 24.21875 4.101562 C 23.851562 3.808594 23.296875 3.632812 22.71875 3.632812 C 22.101562 3.632812 21.570312 3.808594 20.902344 4.226562 L 20.902344 1.050781 L 19.152344 1.085938 L 19.152344 1.3125 C 19.152344 1.464844 19.199219 1.554688 19.300781 1.566406 L 19.414062 1.589844 C 19.730469 1.679688 19.769531 1.730469 19.769531 2.183594 L 19.769531 8.398438 C 19.769531 8.851562 19.730469 8.902344 19.414062 8.992188 L 19.300781 9.015625 C 19.199219 9.027344 19.152344 9.117188 19.152344 9.269531 L 19.152344 9.496094 L 21.519531 9.496094 L 21.519531 9.269531 C 21.519531 9.117188 21.46875 9.042969 21.34375 9.015625 L 21.253906 8.992188 C 20.941406 8.902344 20.902344 8.851562 20.902344 8.398438 Z M 20.902344 4.882812 "/>
<path style=" stroke:none;fill-rule:nonzero;fill:rgb(3.921569%,3.529412%,30.196078%);fill-opacity:1;" d="M 30.953125 6.46875 L 30.953125 6.355469 C 30.929688 4.691406 29.945312 3.632812 28.433594 3.632812 C 26.78125 3.632812 25.582031 4.894531 25.582031 6.621094 C 25.582031 8.410156 26.882812 9.710938 28.660156 9.710938 C 29.679688 9.710938 30.375 9.34375 31.054688 8.449219 L 30.652344 8.148438 C 30.046875 8.890625 29.554688 9.167969 28.886719 9.167969 C 27.6875 9.167969 26.820312 8.132812 26.820312 6.695312 L 26.820312 6.46875 Z M 29.679688 5.902344 L 26.871094 5.902344 C 26.96875 4.820312 27.523438 4.175781 28.355469 4.175781 C 29.214844 4.175781 29.679688 4.742188 29.679688 5.765625 Z M 29.679688 5.902344 "/>
<path style=" stroke:none;fill-rule:nonzero;fill:rgb(3.921569%,3.529412%,30.196078%);fill-opacity:1;" d="M 5.898438 29.378906 L 7.726562 29.378906 C 8.511719 29.378906 9.160156 29.226562 9.691406 28.941406 C 10.613281 28.414062 11.140625 27.566406 11.140625 26.597656 C 11.140625 25.753906 10.746094 25.074219 9.902344 24.484375 C 9.386719 24.121094 8.933594 24.015625 7.996094 24.015625 L 3.613281 24.015625 L 3.613281 24.273438 C 3.613281 24.4375 3.660156 24.5 3.855469 24.558594 L 3.949219 24.589844 C 4.175781 24.710938 4.296875 24.785156 4.308594 24.785156 C 4.386719 24.859375 4.414062 25.011719 4.414062 25.253906 L 4.414062 32.898438 C 4.414062 33.355469 4.355469 33.429688 3.949219 33.535156 L 3.871094 33.550781 C 3.691406 33.59375 3.613281 33.6875 3.613281 33.835938 L 3.613281 34.09375 L 6.699219 34.09375 L 6.699219 33.835938 C 6.699219 33.65625 6.667969 33.609375 6.472656 33.550781 L 6.394531 33.535156 C 5.957031 33.429688 5.898438 33.355469 5.898438 32.898438 Z M 5.898438 28.699219 L 5.898438 24.695312 L 7.679688 24.695312 C 8.796875 24.695312 9.554688 25.511719 9.554688 26.71875 C 9.554688 27.972656 8.753906 28.699219 7.363281 28.699219 Z M 5.898438 28.699219 "/>
<path style=" stroke:none;fill-rule:nonzero;fill:rgb(3.921569%,3.529412%,30.196078%);fill-opacity:1;" d="M 13.3125 27.203125 L 11.195312 27.25 L 11.195312 27.519531 C 11.195312 27.703125 11.226562 27.792969 11.316406 27.808594 L 11.632812 27.898438 C 11.90625 27.988281 11.9375 28.050781 11.9375 28.5625 L 11.9375 32.78125 C 11.9375 33.277344 11.921875 33.324219 11.664062 33.445312 L 11.46875 33.519531 C 11.253906 33.582031 11.195312 33.640625 11.195312 33.820312 L 11.195312 34.09375 L 14.1875 34.09375 L 14.1875 33.820312 C 14.1875 33.640625 14.097656 33.535156 13.945312 33.519531 L 13.703125 33.488281 C 13.324219 33.382812 13.28125 33.324219 13.296875 32.78125 L 13.296875 32.085938 C 13.296875 31.058594 13.445312 30.242188 13.777344 29.441406 C 14.035156 28.835938 14.382812 28.414062 14.640625 28.414062 C 14.699219 28.414062 14.746094 28.425781 14.898438 28.503906 C 15.078125 28.578125 15.246094 28.625 15.410156 28.625 C 15.863281 28.625 16.210938 28.304688 16.210938 27.882812 C 16.210938 27.414062 15.835938 27.066406 15.304688 27.066406 C 14.867188 27.066406 14.488281 27.292969 14.082031 27.792969 C 13.75 28.199219 13.566406 28.578125 13.3125 29.394531 Z M 13.3125 27.203125 "/>
<path style=" stroke:none;fill-rule:nonzero;fill:rgb(3.921569%,3.529412%,30.196078%);fill-opacity:1;" d="M 19.347656 27.023438 C 18.292969 27.023438 17.460938 27.371094 16.734375 28.125 C 16.101562 28.789062 15.753906 29.683594 15.753906 30.632812 C 15.753906 32.75 17.292969 34.289062 19.410156 34.289062 C 21.40625 34.289062 22.945312 32.6875 22.945312 30.617188 C 22.945312 28.546875 21.417969 27.023438 19.347656 27.023438 Z M 19.363281 27.550781 C 20.664062 27.550781 21.390625 28.652344 21.390625 30.632812 C 21.390625 32.644531 20.679688 33.761719 19.394531 33.761719 C 18.035156 33.761719 17.308594 32.597656 17.308594 30.46875 C 17.308594 28.652344 18.082031 27.550781 19.363281 27.550781 Z M 19.363281 27.550781 "/>
<path style=" stroke:none;fill-rule:nonzero;fill:rgb(3.921569%,3.529412%,30.196078%);fill-opacity:1;" d="M 24.84375 31.765625 C 25.222656 31.902344 25.585938 31.964844 26.054688 31.964844 C 27.65625 31.964844 28.9375 30.800781 28.9375 29.363281 C 28.9375 28.867188 28.742188 28.351562 28.394531 27.929688 C 28.136719 27.625 28.136719 27.625 28.136719 27.519531 C 28.136719 27.386719 28.230469 27.265625 28.320312 27.265625 C 28.351562 27.265625 28.378906 27.277344 28.441406 27.371094 C 28.546875 27.503906 28.742188 27.597656 28.9375 27.597656 C 29.316406 27.597656 29.574219 27.339844 29.574219 26.976562 C 29.574219 26.582031 29.210938 26.28125 28.757812 26.28125 C 28.199219 26.28125 27.835938 26.613281 27.65625 27.308594 C 27.019531 26.992188 26.582031 26.871094 26.039062 26.871094 C 24.34375 26.871094 23.046875 28.003906 23.046875 29.46875 C 23.046875 30.332031 23.453125 31.011719 24.253906 31.496094 L 22.984375 34.140625 L 22.984375 34.15625 C 22.96875 34.214844 23.015625 34.261719 23.078125 34.261719 C 23.105469 34.261719 23.183594 34.246094 23.316406 34.214844 C 24.105469 34.0625 24.875 33.972656 25.480469 33.972656 C 27.125 33.972656 28.09375 34.457031 28.09375 35.257812 C 28.09375 36.011719 27.15625 36.601562 25.960938 36.601562 C 25.011719 36.601562 24.375 36.375 24.375 36.027344 C 24.375 36 24.375 35.96875 24.390625 35.9375 C 24.421875 35.695312 24.4375 35.621094 24.4375 35.542969 C 24.4375 35.167969 24.105469 34.878906 23.652344 34.878906 C 23.167969 34.878906 22.820312 35.195312 22.820312 35.652344 C 22.820312 36.511719 24.089844 37.132812 25.855469 37.132812 C 27.882812 37.132812 29.316406 36.195312 29.316406 34.863281 C 29.316406 33.59375 28.019531 32.78125 26.007812 32.78125 C 25.433594 32.78125 24.738281 32.871094 24.253906 32.992188 Z M 26.023438 27.398438 C 26.898438 27.398438 27.488281 28.171875 27.488281 29.363281 C 27.488281 30.632812 26.898438 31.433594 25.976562 31.433594 C 25.070312 31.433594 24.480469 30.664062 24.480469 29.453125 C 24.480469 28.214844 25.085938 27.398438 26.023438 27.398438 Z M 26.023438 27.398438 "/>
<path style=" stroke:none;fill-rule:nonzero;fill:rgb(3.921569%,3.529412%,30.196078%);fill-opacity:1;" d="M 31.171875 27.203125 L 29.054688 27.25 L 29.054688 27.519531 C 29.054688 27.703125 29.085938 27.792969 29.175781 27.808594 L 29.492188 27.898438 C 29.765625 27.988281 29.796875 28.050781 29.796875 28.5625 L 29.796875 32.78125 C 29.796875 33.277344 29.78125 33.324219 29.523438 33.445312 L 29.328125 33.519531 C 29.113281 33.582031 29.054688 33.640625 29.054688 33.820312 L 29.054688 34.09375 L 32.046875 34.09375 L 32.046875 33.820312 C 32.046875 33.640625 31.957031 33.535156 31.804688 33.519531 L 31.5625 33.488281 C 31.183594 33.382812 31.140625 33.324219 31.15625 32.78125 L 31.15625 32.085938 C 31.15625 31.058594 31.304688 30.242188 31.636719 29.441406 C 31.894531 28.835938 32.242188 28.414062 32.5 28.414062 C 32.558594 28.414062 32.605469 28.425781 32.757812 28.503906 C 32.9375 28.578125 33.105469 28.625 33.269531 28.625 C 33.722656 28.625 34.070312 28.304688 34.070312 27.882812 C 34.070312 27.414062 33.695312 27.066406 33.164062 27.066406 C 32.726562 27.066406 32.347656 27.292969 31.941406 27.792969 C 31.609375 28.199219 31.425781 28.578125 31.171875 29.394531 Z M 31.171875 27.203125 "/>
<path style=" stroke:none;fill-rule:nonzero;fill:rgb(3.921569%,3.529412%,30.196078%);fill-opacity:1;" d="M 40.292969 33.398438 C 40.125 33.535156 40.035156 33.582031 39.898438 33.582031 C 39.460938 33.582031 39.265625 33.15625 39.265625 32.207031 L 39.265625 30.332031 C 39.265625 29.410156 39.113281 28.578125 38.871094 28.171875 C 38.464844 27.519531 37.464844 27.066406 36.421875 27.066406 C 35.230469 27.066406 34.246094 27.640625 34.246094 28.320312 C 34.246094 28.714844 34.566406 29 35.003906 29 C 35.441406 29 35.773438 28.683594 35.820312 28.214844 C 35.863281 27.761719 36.015625 27.597656 36.4375 27.597656 C 36.847656 27.597656 37.210938 27.792969 37.480469 28.171875 C 37.722656 28.503906 37.785156 28.820312 37.84375 29.832031 C 35.03125 30.121094 33.582031 30.964844 33.582031 32.324219 C 33.582031 33.503906 34.578125 34.351562 35.96875 34.351562 C 36.816406 34.351562 37.269531 34.125 38.039062 33.355469 C 38.34375 34.0625 38.71875 34.351562 39.355469 34.351562 C 39.851562 34.351562 40.441406 34.003906 40.441406 33.6875 C 40.441406 33.65625 40.425781 33.609375 40.414062 33.582031 Z M 37.902344 30.632812 L 37.902344 30.980469 C 37.902344 31.902344 37.84375 32.402344 37.707031 32.734375 C 37.4375 33.324219 36.890625 33.703125 36.289062 33.703125 C 35.605469 33.703125 35.140625 33.171875 35.140625 32.386719 C 35.140625 31.253906 36.105469 30.542969 37.902344 30.332031 Z M 37.902344 30.632812 "/>
<path style=" stroke:none;fill-rule:nonzero;fill:rgb(3.921569%,3.529412%,30.196078%);fill-opacity:1;" d="M 42.144531 27.203125 L 40.136719 27.25 L 40.136719 27.519531 C 40.136719 27.703125 40.195312 27.808594 40.332031 27.824219 L 40.453125 27.851562 C 40.828125 27.960938 40.875 28.019531 40.875 28.5625 L 40.875 32.78125 C 40.875 33.324219 40.828125 33.382812 40.453125 33.488281 L 40.332031 33.519531 C 40.195312 33.535156 40.136719 33.640625 40.136719 33.820312 L 40.136719 34.09375 L 43.035156 34.09375 L 43.035156 33.820312 C 43.035156 33.640625 42.960938 33.535156 42.824219 33.519531 L 42.660156 33.488281 C 42.28125 33.382812 42.234375 33.324219 42.234375 32.78125 L 42.234375 28.640625 C 42.660156 28.078125 43.308594 27.71875 43.835938 27.71875 C 44.109375 27.71875 44.394531 27.824219 44.636719 28.019531 C 44.96875 28.277344 45.078125 28.5625 45.078125 29.242188 L 45.078125 32.78125 C 45.078125 33.324219 45.03125 33.382812 44.652344 33.488281 L 44.546875 33.519531 C 44.394531 33.550781 44.335938 33.640625 44.335938 33.820312 L 44.335938 34.09375 L 47.191406 34.09375 L 47.191406 33.820312 C 47.191406 33.640625 47.117188 33.535156 46.980469 33.519531 L 46.859375 33.488281 C 46.480469 33.382812 46.4375 33.324219 46.4375 32.78125 L 46.4375 28.625 C 46.8125 28.125 47.433594 27.792969 47.976562 27.792969 C 48.308594 27.792969 48.6875 27.929688 48.898438 28.140625 C 49.125 28.367188 49.214844 28.667969 49.214844 29.242188 L 49.214844 32.78125 C 49.214844 33.324219 49.171875 33.382812 48.808594 33.488281 L 48.6875 33.519531 C 48.550781 33.550781 48.492188 33.640625 48.492188 33.820312 L 48.492188 34.09375 L 51.316406 34.09375 L 51.316406 33.820312 C 51.316406 33.640625 51.257812 33.535156 51.136719 33.519531 L 51 33.488281 C 50.621094 33.382812 50.578125 33.324219 50.578125 32.78125 L 50.578125 29.183594 C 50.578125 28.472656 50.472656 28.109375 50.167969 27.746094 C 49.820312 27.339844 49.109375 27.066406 48.402344 27.066406 C 47.585938 27.066406 47.054688 27.292969 46.226562 28.050781 C 45.816406 27.371094 45.210938 27.066406 44.261719 27.066406 C 43.472656 27.066406 42.824219 27.355469 42.144531 28.019531 Z M 42.144531 27.203125 "/>
<path style=" stroke:none;fill-rule:nonzero;fill:rgb(3.921569%,3.529412%,30.196078%);fill-opacity:1;" d="M 53.519531 27.203125 L 51.507812 27.25 L 51.507812 27.519531 C 51.507812 27.703125 51.570312 27.808594 51.703125 27.824219 L 51.824219 27.851562 C 52.203125 27.960938 52.25 28.019531 52.25 28.5625 L 52.25 32.78125 C 52.25 33.324219 52.203125 33.382812 51.824219 33.488281 L 51.703125 33.519531 C 51.570312 33.535156 51.507812 33.640625 51.507812 33.820312 L 51.507812 34.09375 L 54.410156 34.09375 L 54.410156 33.820312 C 54.410156 33.640625 54.332031 33.535156 54.199219 33.519531 L 54.03125 33.488281 C 53.652344 33.382812 53.609375 33.324219 53.609375 32.78125 L 53.609375 28.640625 C 54.03125 28.078125 54.679688 27.71875 55.210938 27.71875 C 55.480469 27.71875 55.769531 27.824219 56.011719 28.019531 C 56.34375 28.277344 56.449219 28.5625 56.449219 29.242188 L 56.449219 32.78125 C 56.449219 33.324219 56.402344 33.382812 56.027344 33.488281 L 55.921875 33.519531 C 55.769531 33.550781 55.707031 33.640625 55.707031 33.820312 L 55.707031 34.09375 L 58.566406 34.09375 L 58.566406 33.820312 C 58.566406 33.640625 58.488281 33.535156 58.351562 33.519531 L 58.230469 33.488281 C 57.855469 33.382812 57.808594 33.324219 57.808594 32.78125 L 57.808594 28.625 C 58.1875 28.125 58.804688 27.792969 59.351562 27.792969 C 59.683594 27.792969 60.0625 27.929688 60.273438 28.140625 C 60.5 28.367188 60.589844 28.667969 60.589844 29.242188 L 60.589844 32.78125 C 60.589844 33.324219 60.542969 33.382812 60.183594 33.488281 L 60.0625 33.519531 C 59.925781 33.550781 59.863281 33.640625 59.863281 33.820312 L 59.863281 34.09375 L 62.691406 34.09375 L 62.691406 33.820312 C 62.691406 33.640625 62.628906 33.535156 62.507812 33.519531 L 62.371094 33.488281 C 61.996094 33.382812 61.949219 33.324219 61.949219 32.78125 L 61.949219 29.183594 C 61.949219 28.472656 61.84375 28.109375 61.542969 27.746094 C 61.195312 27.339844 60.484375 27.066406 59.773438 27.066406 C 58.957031 27.066406 58.429688 27.292969 57.597656 28.050781 C 57.191406 27.371094 56.585938 27.066406 55.632812 27.066406 C 54.847656 27.066406 54.199219 27.355469 53.519531 28.019531 Z M 53.519531 27.203125 "/>
<path style=" stroke:none;fill-rule:nonzero;fill:rgb(3.921569%,3.529412%,30.196078%);fill-opacity:1;" d="M 64.980469 27.203125 L 62.882812 27.25 L 62.882812 27.519531 C 62.941406 27.746094 62.957031 27.777344 63.109375 27.824219 L 63.199219 27.851562 C 63.589844 27.960938 63.621094 28.019531 63.621094 28.5625 L 63.621094 32.78125 C 63.621094 33.324219 63.574219 33.382812 63.199219 33.488281 L 63.109375 33.519531 C 62.957031 33.566406 62.941406 33.59375 62.882812 33.820312 L 62.882812 34.09375 L 65.722656 34.09375 L 65.722656 33.820312 L 65.675781 33.703125 C 65.660156 33.65625 65.644531 33.625 65.644531 33.609375 C 65.617188 33.582031 65.554688 33.535156 65.480469 33.519531 L 65.40625 33.488281 C 65.027344 33.382812 64.980469 33.324219 64.980469 32.78125 Z M 64.058594 24.40625 C 63.574219 24.40625 63.167969 24.800781 63.167969 25.269531 C 63.167969 25.769531 63.5625 26.175781 64.058594 26.175781 C 64.542969 26.175781 64.9375 25.78125 64.9375 25.285156 C 64.9375 24.800781 64.542969 24.40625 64.058594 24.40625 Z M 64.058594 24.40625 "/>
<path style=" stroke:none;fill-rule:nonzero;fill:rgb(3.921569%,3.529412%,30.196078%);fill-opacity:1;" d="M 67.921875 27.203125 L 65.914062 27.25 L 65.914062 27.519531 C 65.914062 27.703125 65.972656 27.777344 66.15625 27.824219 L 66.230469 27.851562 C 66.621094 27.960938 66.652344 28.019531 66.652344 28.5625 L 66.652344 32.78125 C 66.652344 33.324219 66.609375 33.382812 66.230469 33.488281 L 66.15625 33.519531 C 65.972656 33.566406 65.914062 33.640625 65.914062 33.820312 L 65.914062 34.09375 L 68.785156 34.09375 L 68.785156 33.820312 C 68.785156 33.640625 68.707031 33.535156 68.570312 33.519531 L 68.4375 33.488281 C 68.058594 33.382812 68.011719 33.324219 68.011719 32.78125 L 68.011719 28.578125 C 68.34375 28.066406 69.027344 27.71875 69.628906 27.71875 C 70.066406 27.71875 70.492188 27.867188 70.75 28.109375 C 70.988281 28.351562 71.066406 28.683594 71.066406 29.425781 L 71.066406 32.78125 C 71.066406 33.324219 71.019531 33.382812 70.628906 33.488281 L 70.460938 33.519531 C 70.324219 33.535156 70.25 33.640625 70.25 33.820312 L 70.25 34.09375 L 73.164062 34.09375 L 73.164062 33.820312 C 73.164062 33.640625 73.105469 33.535156 72.984375 33.519531 L 72.847656 33.488281 C 72.472656 33.382812 72.425781 33.324219 72.425781 32.78125 L 72.425781 29.0625 C 72.425781 28.367188 72.320312 28.019531 71.972656 27.671875 C 71.5625 27.265625 71.003906 27.066406 70.1875 27.066406 C 69.238281 27.066406 68.769531 27.234375 67.921875 27.914062 Z M 67.921875 27.203125 "/>
<path style=" stroke:none;fill-rule:nonzero;fill:rgb(3.921569%,3.529412%,30.196078%);fill-opacity:1;" d="M 75.109375 31.765625 C 75.488281 31.902344 75.851562 31.964844 76.320312 31.964844 C 77.921875 31.964844 79.203125 30.800781 79.203125 29.363281 C 79.203125 28.867188 79.007812 28.351562 78.660156 27.929688 C 78.402344 27.625 78.402344 27.625 78.402344 27.519531 C 78.402344 27.386719 78.496094 27.265625 78.585938 27.265625 C 78.617188 27.265625 78.644531 27.277344 78.707031 27.371094 C 78.8125 27.503906 79.007812 27.597656 79.203125 27.597656 C 79.582031 27.597656 79.839844 27.339844 79.839844 26.976562 C 79.839844 26.582031 79.476562 26.28125 79.023438 26.28125 C 78.464844 26.28125 78.101562 26.613281 77.921875 27.308594 C 77.285156 26.992188 76.847656 26.871094 76.304688 26.871094 C 74.609375 26.871094 73.3125 28.003906 73.3125 29.46875 C 73.3125 30.332031 73.71875 31.011719 74.519531 31.496094 L 73.25 34.140625 L 73.25 34.15625 C 73.234375 34.214844 73.28125 34.261719 73.339844 34.261719 C 73.371094 34.261719 73.449219 34.246094 73.582031 34.214844 C 74.371094 34.0625 75.140625 33.972656 75.746094 33.972656 C 77.390625 33.972656 78.359375 34.457031 78.359375 35.257812 C 78.359375 36.011719 77.421875 36.601562 76.226562 36.601562 C 75.277344 36.601562 74.640625 36.375 74.640625 36.027344 C 74.640625 36 74.640625 35.96875 74.65625 35.9375 C 74.6875 35.695312 74.703125 35.621094 74.703125 35.542969 C 74.703125 35.167969 74.371094 34.878906 73.914062 34.878906 C 73.433594 34.878906 73.085938 35.195312 73.085938 35.652344 C 73.085938 36.511719 74.355469 37.132812 76.121094 37.132812 C 78.148438 37.132812 79.582031 36.195312 79.582031 34.863281 C 79.582031 33.59375 78.28125 32.78125 76.273438 32.78125 C 75.699219 32.78125 75.003906 32.871094 74.519531 32.992188 Z M 76.289062 27.398438 C 77.164062 27.398438 77.753906 28.171875 77.753906 29.363281 C 77.753906 30.632812 77.164062 31.433594 76.242188 31.433594 C 75.335938 31.433594 74.746094 30.664062 74.746094 29.453125 C 74.746094 28.214844 75.351562 27.398438 76.289062 27.398438 Z M 76.289062 27.398438 "/>
<path style=" stroke:none;fill-rule:nonzero;fill:rgb(3.921569%,3.529412%,30.196078%);fill-opacity:1;" d="M 43.5625 45.34375 L 43.5625 37.136719 C 43.5625 36.683594 43.625 36.609375 44.03125 36.503906 L 44.109375 36.488281 C 44.289062 36.441406 44.347656 36.367188 44.347656 36.199219 L 44.347656 35.945312 L 41.28125 35.945312 L 41.28125 36.199219 C 41.28125 36.351562 41.355469 36.441406 41.523438 36.488281 L 41.613281 36.503906 C 42.023438 36.609375 42.082031 36.683594 42.082031 37.136719 L 42.082031 44.800781 C 42.082031 45.207031 41.976562 45.359375 41.613281 45.464844 L 41.523438 45.480469 C 41.328125 45.539062 41.28125 45.601562 41.28125 45.765625 L 41.28125 46.023438 L 48.503906 46.023438 L 48.503906 43.484375 L 48.128906 43.484375 C 47.929688 43.484375 47.839844 43.558594 47.78125 43.816406 C 47.613281 44.542969 47.507812 44.738281 47.191406 44.964844 C 46.859375 45.207031 46.253906 45.34375 45.484375 45.34375 Z M 43.5625 45.34375 "/>
<path style=" stroke:none;fill-rule:nonzero;fill:rgb(3.921569%,3.529412%,30.196078%);fill-opacity:1;" d="M 55.132812 45.328125 C 54.964844 45.464844 54.875 45.507812 54.738281 45.507812 C 54.300781 45.507812 54.105469 45.085938 54.105469 44.132812 L 54.105469 42.261719 C 54.105469 41.339844 53.953125 40.507812 53.710938 40.097656 C 53.304688 39.449219 52.308594 38.996094 51.265625 38.996094 C 50.070312 38.996094 49.089844 39.570312 49.089844 40.25 C 49.089844 40.644531 49.40625 40.929688 49.84375 40.929688 C 50.28125 40.929688 50.613281 40.613281 50.660156 40.144531 C 50.707031 39.691406 50.855469 39.523438 51.28125 39.523438 C 51.6875 39.523438 52.050781 39.722656 52.324219 40.097656 C 52.5625 40.433594 52.625 40.75 52.683594 41.761719 C 49.875 42.050781 48.421875 42.894531 48.421875 44.253906 C 48.421875 45.433594 49.421875 46.28125 50.8125 46.28125 C 51.65625 46.28125 52.109375 46.054688 52.882812 45.28125 C 53.183594 45.992188 53.5625 46.28125 54.195312 46.28125 C 54.695312 46.28125 55.285156 45.933594 55.285156 45.613281 C 55.285156 45.585938 55.269531 45.539062 55.253906 45.507812 Z M 52.746094 42.5625 L 52.746094 42.910156 C 52.746094 43.832031 52.683594 44.332031 52.550781 44.664062 C 52.277344 45.253906 51.734375 45.628906 51.128906 45.628906 C 50.449219 45.628906 49.980469 45.101562 49.980469 44.316406 C 49.980469 43.183594 50.945312 42.472656 52.746094 42.261719 Z M 52.746094 42.5625 "/>
<path style=" stroke:none;fill-rule:nonzero;fill:rgb(3.921569%,3.529412%,30.196078%);fill-opacity:1;" d="M 56.984375 39.132812 L 54.976562 39.179688 L 54.976562 39.449219 C 54.976562 39.632812 55.035156 39.707031 55.21875 39.753906 L 55.292969 39.78125 C 55.6875 39.886719 55.714844 39.949219 55.714844 40.492188 L 55.714844 44.707031 C 55.714844 45.253906 55.671875 45.3125 55.292969 45.417969 L 55.21875 45.449219 C 55.035156 45.496094 54.976562 45.570312 54.976562 45.75 L 54.976562 46.023438 L 57.847656 46.023438 L 57.847656 45.75 C 57.847656 45.570312 57.773438 45.464844 57.636719 45.449219 L 57.5 45.417969 C 57.121094 45.3125 57.078125 45.253906 57.078125 44.707031 L 57.078125 40.507812 C 57.410156 39.992188 58.089844 39.644531 58.695312 39.644531 C 59.132812 39.644531 59.554688 39.796875 59.8125 40.039062 C 60.054688 40.28125 60.128906 40.613281 60.128906 41.355469 L 60.128906 44.707031 C 60.128906 45.253906 60.082031 45.3125 59.691406 45.417969 L 59.523438 45.449219 C 59.386719 45.464844 59.3125 45.570312 59.3125 45.75 L 59.3125 46.023438 L 62.230469 46.023438 L 62.230469 45.75 C 62.230469 45.570312 62.167969 45.464844 62.046875 45.449219 L 61.914062 45.417969 C 61.535156 45.3125 61.488281 45.253906 61.488281 44.707031 L 61.488281 40.992188 C 61.488281 40.296875 61.382812 39.949219 61.035156 39.601562 C 60.628906 39.191406 60.070312 38.996094 59.253906 38.996094 C 58.300781 38.996094 57.832031 39.164062 56.984375 39.84375 Z M 56.984375 39.132812 "/>
<path style=" stroke:none;fill-rule:nonzero;fill:rgb(3.921569%,3.529412%,30.196078%);fill-opacity:1;" d="M 64.171875 43.695312 C 64.550781 43.832031 64.914062 43.890625 65.382812 43.890625 C 66.984375 43.890625 68.269531 42.730469 68.269531 41.292969 C 68.269531 40.792969 68.070312 40.28125 67.722656 39.859375 C 67.46875 39.554688 67.46875 39.554688 67.46875 39.449219 C 67.46875 39.3125 67.558594 39.191406 67.648438 39.191406 C 67.679688 39.191406 67.710938 39.207031 67.769531 39.296875 C 67.875 39.433594 68.070312 39.523438 68.269531 39.523438 C 68.644531 39.523438 68.902344 39.269531 68.902344 38.90625 C 68.902344 38.511719 68.539062 38.210938 68.085938 38.210938 C 67.527344 38.210938 67.164062 38.542969 66.984375 39.238281 C 66.347656 38.921875 65.910156 38.800781 65.367188 38.800781 C 63.675781 38.800781 62.375 39.933594 62.375 41.398438 C 62.375 42.261719 62.78125 42.941406 63.582031 43.425781 L 62.316406 46.070312 L 62.316406 46.082031 C 62.300781 46.144531 62.34375 46.1875 62.40625 46.1875 C 62.433594 46.1875 62.511719 46.175781 62.648438 46.144531 C 63.433594 45.992188 64.203125 45.902344 64.808594 45.902344 C 66.453125 45.902344 67.421875 46.386719 67.421875 47.1875 C 67.421875 47.941406 66.484375 48.53125 65.292969 48.53125 C 64.339844 48.53125 63.703125 48.304688 63.703125 47.957031 C 63.703125 47.925781 63.703125 47.898438 63.71875 47.867188 C 63.75 47.625 63.765625 47.550781 63.765625 47.472656 C 63.765625 47.097656 63.433594 46.808594 62.980469 46.808594 C 62.496094 46.808594 62.148438 47.125 62.148438 47.578125 C 62.148438 48.441406 63.417969 49.058594 65.1875 49.058594 C 67.210938 49.058594 68.644531 48.125 68.644531 46.792969 C 68.644531 45.523438 67.347656 44.707031 65.335938 44.707031 C 64.761719 44.707031 64.066406 44.800781 63.582031 44.921875 Z M 65.351562 39.328125 C 66.226562 39.328125 66.816406 40.097656 66.816406 41.292969 C 66.816406 42.5625 66.226562 43.363281 65.304688 43.363281 C 64.398438 43.363281 63.8125 42.59375 63.8125 41.382812 C 63.8125 40.144531 64.414062 39.328125 65.351562 39.328125 Z M 65.351562 39.328125 "/>
<path style=" stroke:none;fill-rule:nonzero;fill:rgb(3.921569%,3.529412%,30.196078%);fill-opacity:1;" d="M 73.613281 46.023438 L 75.742188 46.023438 L 75.742188 45.75 C 75.742188 45.570312 75.683594 45.480469 75.53125 45.449219 L 75.425781 45.417969 C 75.046875 45.3125 75.003906 45.253906 75.003906 44.707031 L 75.003906 39.132812 L 72.828125 39.179688 L 72.828125 39.449219 C 72.828125 39.632812 72.902344 39.738281 73.039062 39.753906 L 73.171875 39.78125 C 73.550781 39.886719 73.597656 39.949219 73.597656 40.492188 L 73.597656 44.722656 C 72.855469 45.28125 72.523438 45.417969 71.980469 45.417969 C 71.480469 45.417969 71.011719 45.253906 70.769531 44.996094 C 70.542969 44.738281 70.484375 44.511719 70.484375 43.785156 L 70.484375 39.132812 L 68.382812 39.179688 L 68.382812 39.449219 C 68.382812 39.632812 68.460938 39.738281 68.578125 39.753906 L 68.699219 39.78125 C 69.078125 39.886719 69.125 39.949219 69.125 40.492188 L 69.125 44.089844 C 69.125 45.402344 70.015625 46.21875 71.421875 46.21875 C 72.191406 46.21875 73.039062 45.902344 73.613281 45.386719 Z M 73.613281 46.023438 "/>
<path style=" stroke:none;fill-rule:nonzero;fill:rgb(3.921569%,3.529412%,30.196078%);fill-opacity:1;" d="M 82.339844 45.328125 C 82.175781 45.464844 82.082031 45.507812 81.949219 45.507812 C 81.507812 45.507812 81.3125 45.085938 81.3125 44.132812 L 81.3125 42.261719 C 81.3125 41.339844 81.160156 40.507812 80.921875 40.097656 C 80.511719 39.449219 79.515625 38.996094 78.472656 38.996094 C 77.277344 38.996094 76.296875 39.570312 76.296875 40.25 C 76.296875 40.644531 76.613281 40.929688 77.050781 40.929688 C 77.488281 40.929688 77.824219 40.613281 77.867188 40.144531 C 77.914062 39.691406 78.0625 39.523438 78.488281 39.523438 C 78.894531 39.523438 79.257812 39.722656 79.53125 40.097656 C 79.773438 40.433594 79.832031 40.75 79.894531 41.761719 C 77.082031 42.050781 75.632812 42.894531 75.632812 44.253906 C 75.632812 45.433594 76.628906 46.28125 78.019531 46.28125 C 78.863281 46.28125 79.320312 46.054688 80.089844 45.28125 C 80.390625 45.992188 80.769531 46.28125 81.402344 46.28125 C 81.902344 46.28125 82.492188 45.933594 82.492188 45.613281 C 82.492188 45.585938 82.476562 45.539062 82.460938 45.507812 Z M 79.953125 42.5625 L 79.953125 42.910156 C 79.953125 43.832031 79.894531 44.332031 79.757812 44.664062 C 79.484375 45.253906 78.941406 45.628906 78.335938 45.628906 C 77.65625 45.628906 77.1875 45.101562 77.1875 44.316406 C 77.1875 43.183594 78.15625 42.472656 79.953125 42.261719 Z M 79.953125 42.5625 "/>
<path style=" stroke:none;fill-rule:nonzero;fill:rgb(3.921569%,3.529412%,30.196078%);fill-opacity:1;" d="M 84.164062 43.695312 C 84.542969 43.832031 84.902344 43.890625 85.371094 43.890625 C 86.972656 43.890625 88.257812 42.730469 88.257812 41.292969 C 88.257812 40.792969 88.0625 40.28125 87.714844 39.859375 C 87.457031 39.554688 87.457031 39.554688 87.457031 39.449219 C 87.457031 39.3125 87.546875 39.191406 87.640625 39.191406 C 87.667969 39.191406 87.699219 39.207031 87.761719 39.296875 C 87.867188 39.433594 88.0625 39.523438 88.257812 39.523438 C 88.636719 39.523438 88.894531 39.269531 88.894531 38.90625 C 88.894531 38.511719 88.53125 38.210938 88.078125 38.210938 C 87.519531 38.210938 87.15625 38.542969 86.972656 39.238281 C 86.339844 38.921875 85.902344 38.800781 85.355469 38.800781 C 83.664062 38.800781 82.363281 39.933594 82.363281 41.398438 C 82.363281 42.261719 82.773438 42.941406 83.574219 43.425781 L 82.304688 46.070312 L 82.304688 46.082031 C 82.289062 46.144531 82.335938 46.1875 82.394531 46.1875 C 82.425781 46.1875 82.5 46.175781 82.636719 46.144531 C 83.421875 45.992188 84.195312 45.902344 84.796875 45.902344 C 86.445312 45.902344 87.414062 46.386719 87.414062 47.1875 C 87.414062 47.941406 86.476562 48.53125 85.28125 48.53125 C 84.328125 48.53125 83.695312 48.304688 83.695312 47.957031 C 83.695312 47.925781 83.695312 47.898438 83.710938 47.867188 C 83.742188 47.625 83.753906 47.550781 83.753906 47.472656 C 83.753906 47.097656 83.421875 46.808594 82.96875 46.808594 C 82.484375 46.808594 82.136719 47.125 82.136719 47.578125 C 82.136719 48.441406 83.40625 49.058594 85.175781 49.058594 C 87.199219 49.058594 88.636719 48.125 88.636719 46.792969 C 88.636719 45.523438 87.335938 44.707031 85.328125 44.707031 C 84.753906 44.707031 84.058594 44.800781 83.574219 44.921875 Z M 85.34375 39.328125 C 86.21875 39.328125 86.808594 40.097656 86.808594 41.292969 C 86.808594 42.5625 86.21875 43.363281 85.296875 43.363281 C 84.390625 43.363281 83.800781 42.59375 83.800781 41.382812 C 83.800781 40.144531 84.40625 39.328125 85.34375 39.328125 Z M 85.34375 39.328125 "/>
<path style=" stroke:none;fill-rule:nonzero;fill:rgb(3.921569%,3.529412%,30.196078%);fill-opacity:1;" d="M 94.71875 42.394531 L 94.71875 42.261719 C 94.691406 40.265625 93.511719 38.996094 91.699219 38.996094 C 89.71875 38.996094 88.28125 40.507812 88.28125 42.578125 C 88.28125 44.722656 89.839844 46.28125 91.96875 46.28125 C 93.195312 46.28125 94.023438 45.839844 94.839844 44.769531 L 94.359375 44.40625 C 93.632812 45.296875 93.042969 45.628906 92.242188 45.628906 C 90.808594 45.628906 89.765625 44.390625 89.765625 42.667969 L 89.765625 42.394531 Z M 93.195312 41.714844 L 89.824219 41.714844 C 89.945312 40.417969 90.609375 39.644531 91.609375 39.644531 C 92.636719 39.644531 93.195312 40.328125 93.195312 41.550781 Z M 93.195312 41.714844 "/>
<path style=" stroke:none;fill-rule:nonzero;fill:rgb(90.588235%,0%,0%);fill-opacity:1;" d="M 35.808594 6.730469 L 30.78125 19.039062 C 30.25 20.179688 29.90625 20.574219 29.324219 20.707031 C 28.875 20.839844 28.742188 20.972656 28.742188 21.265625 L 28.742188 21.765625 L 33.214844 21.765625 L 33.214844 21.265625 C 33.214844 21 33.109375 20.894531 32.792969 20.789062 C 32.132812 20.574219 31.917969 20.390625 31.917969 19.941406 C 31.917969 19.703125 32 19.382812 32.238281 18.777344 L 32.976562 16.84375 L 39.941406 16.84375 L 40.839844 19.039062 C 41.023438 19.492188 41.128906 19.886719 41.128906 20.125 C 41.128906 20.445312 40.945312 20.601562 40.335938 20.789062 C 39.941406 20.894531 39.808594 21 39.808594 21.265625 L 39.808594 21.765625 L 45.445312 21.765625 L 45.445312 21.265625 C 45.445312 21.027344 45.367188 20.917969 45.15625 20.839844 C 44.386719 20.601562 44.308594 20.523438 43.855469 19.597656 L 37.265625 3.742188 C 37.214844 3.582031 37.1875 3.554688 37.132812 3.554688 C 37.082031 3.554688 37.082031 3.554688 36.867188 3.6875 L 35.519531 4.507812 C 35.28125 4.667969 35.148438 4.824219 35.148438 4.957031 C 35.148438 5.011719 35.175781 5.089844 35.203125 5.195312 Z M 39.410156 15.652344 L 33.480469 15.652344 L 36.445312 8.320312 Z M 39.410156 15.652344 "/>
<path style=" stroke:none;fill-rule:nonzero;fill:rgb(90.588235%,0%,0%);fill-opacity:1;" d="M 53.875 10.382812 L 57.738281 22.03125 L 58.769531 22.03125 L 63.71875 6.785156 C 64.277344 5.328125 64.300781 5.277344 65.148438 4.984375 C 65.335938 4.957031 65.414062 4.851562 65.414062 4.667969 L 65.414062 4.109375 L 61.3125 4.109375 L 61.3125 4.667969 C 61.3125 4.878906 61.46875 5.039062 61.734375 5.089844 C 62.371094 5.195312 62.582031 5.355469 62.582031 5.699219 C 62.582031 5.992188 62.449219 6.574219 62.238281 7.261719 L 58.875 17.664062 L 55.195312 6.597656 C 55.039062 6.097656 55.039062 6.097656 55.039062 5.910156 C 55.039062 5.488281 55.171875 5.382812 55.992188 5.144531 C 56.308594 5.039062 56.441406 4.90625 56.441406 4.667969 L 56.441406 4.109375 L 51.121094 4.109375 L 51.121094 4.667969 C 51.121094 4.90625 51.277344 5.039062 51.542969 5.089844 C 52.179688 5.195312 52.335938 5.355469 52.550781 6.097656 L 53.210938 8.1875 L 50.140625 17.398438 L 46.648438 6.785156 L 46.515625 6.359375 C 46.410156 6.070312 46.382812 5.964844 46.382812 5.832031 C 46.382812 5.433594 46.621094 5.171875 47.015625 5.117188 C 47.625 5.011719 47.757812 4.933594 47.757812 4.667969 L 47.757812 4.109375 L 42.464844 4.109375 L 42.464844 4.667969 C 42.464844 4.851562 42.542969 4.957031 42.730469 5.039062 C 43.417969 5.25 43.574219 5.40625 43.839844 6.28125 L 49.003906 22.03125 L 50.007812 22.03125 Z M 53.875 10.382812 "/>
<path style=" stroke:none;fill-rule:nonzero;fill:rgb(90.588235%,0%,0%);fill-opacity:1;" d="M 67.304688 11.8125 L 67.304688 6.203125 C 67.304688 5.40625 67.410156 5.277344 68.097656 5.089844 L 68.203125 5.0625 C 68.546875 4.957031 68.628906 4.851562 68.628906 4.5625 L 68.628906 4.109375 L 63.304688 4.109375 L 63.304688 4.5625 C 63.304688 4.5625 63.332031 4.613281 63.519531 4.90625 C 63.542969 4.957031 63.625 5.011719 63.78125 5.0625 L 63.941406 5.089844 C 64.605469 5.277344 64.710938 5.433594 64.710938 6.203125 L 64.710938 19.675781 C 64.710938 20.46875 64.605469 20.601562 63.890625 20.789062 L 63.757812 20.8125 C 63.4375 20.894531 63.304688 21.050781 63.304688 21.316406 L 63.304688 21.765625 L 68.628906 21.765625 L 68.628906 21.316406 C 68.628906 21.027344 68.546875 20.917969 68.203125 20.8125 L 68.097656 20.789062 C 67.410156 20.601562 67.304688 20.46875 67.304688 19.675781 L 67.304688 12.582031 L 73.761719 19.621094 C 73.949219 19.859375 74.054688 20.046875 74.054688 20.207031 C 74.054688 20.523438 73.816406 20.679688 73.179688 20.8125 C 72.863281 20.867188 72.757812 21 72.757812 21.316406 L 72.757812 21.765625 L 79.109375 21.765625 L 79.109375 21.316406 C 79.109375 20.945312 79.054688 20.867188 78.632812 20.761719 C 78.050781 20.601562 77.945312 20.550781 77.125 19.621094 L 69.660156 11.445312 L 75.085938 6.46875 C 75.429688 6.175781 75.773438 5.882812 76.117188 5.621094 C 76.277344 5.488281 76.78125 5.25 76.9375 5.195312 C 77.890625 4.933594 77.890625 4.933594 77.890625 4.695312 L 77.890625 4.109375 L 72.253906 4.109375 L 72.253906 4.695312 C 72.253906 4.933594 72.386719 5.0625 72.808594 5.144531 C 73.445312 5.277344 73.65625 5.40625 73.65625 5.644531 C 73.65625 5.832031 73.367188 6.28125 73.128906 6.519531 Z M 67.304688 11.8125 "/>
</g>
</svg>
