<?xml version="1.0" encoding="UTF-8"?>
<svg xmlns="http://www.w3.org/2000/svg" xmlns:xlink="http://www.w3.org/1999/xlink" width="100px" height="px" viewBox="0 0 99 43" version="1.1">
<g id="surface1">
<path style=" stroke:none;fill-rule:nonzero;fill:rgb(4.705882%,32.941176%,29.803922%);fill-opacity:1;" d="M 96.402344 10.5625 C 95.613281 10.5625 94.972656 9.917969 94.972656 9.121094 C 94.972656 8.324219 95.613281 7.679688 96.402344 7.679688 C 97.191406 7.679688 97.832031 8.324219 97.832031 9.121094 C 97.832031 9.917969 97.191406 10.5625 96.402344 10.5625 M 82.171875 35.203125 C 81.382812 35.203125 80.742188 34.558594 80.742188 33.761719 C 80.742188 32.964844 81.382812 32.320312 82.171875 32.320312 C 82.964844 32.320312 83.605469 32.964844 83.605469 33.761719 C 83.605469 34.558594 82.964844 35.203125 82.171875 35.203125 M 96.402344 6.492188 C 94.953125 6.492188 93.78125 7.675781 93.78125 9.132812 C 93.78125 9.441406 93.859375 9.734375 93.957031 10.007812 L 81.660156 31.222656 C 80.472656 31.472656 79.5625 32.484375 79.5625 33.753906 C 79.5625 35.214844 80.738281 36.394531 82.183594 36.394531 C 83.628906 36.394531 84.804688 35.210938 84.804688 33.753906 C 84.804688 33.460938 84.726562 33.195312 84.640625 32.929688 L 96.992188 11.632812 C 98.144531 11.351562 99.019531 10.359375 99.019531 9.113281 C 99.019531 7.65625 97.84375 6.476562 96.398438 6.476562 "/>
<path style=" stroke:none;fill-rule:nonzero;fill:rgb(2.745098%,20.784314%,31.764706%);fill-opacity:1;" d="M 85.722656 10.5625 C 84.933594 10.5625 84.292969 9.917969 84.292969 9.121094 C 84.292969 8.324219 84.933594 7.679688 85.722656 7.679688 C 86.515625 7.679688 87.15625 8.324219 87.15625 9.121094 C 87.15625 9.917969 86.515625 10.5625 85.722656 10.5625 M 71.492188 35.203125 C 70.703125 35.203125 70.0625 34.558594 70.0625 33.761719 C 70.0625 32.964844 70.703125 32.320312 71.492188 32.320312 C 72.285156 32.320312 72.925781 32.964844 72.925781 33.761719 C 72.925781 34.558594 72.285156 35.203125 71.492188 35.203125 M 85.722656 6.492188 C 84.273438 6.492188 83.101562 7.675781 83.101562 9.132812 C 83.101562 9.441406 83.179688 9.734375 83.277344 10.007812 L 70.984375 31.222656 C 69.792969 31.472656 68.882812 32.484375 68.882812 33.753906 C 68.882812 35.214844 70.054688 36.394531 71.503906 36.394531 C 72.949219 36.394531 74.121094 35.210938 74.121094 33.753906 C 74.121094 33.460938 74.042969 33.195312 73.957031 32.929688 L 86.3125 11.632812 C 87.464844 11.351562 88.335938 10.359375 88.335938 9.113281 C 88.335938 7.65625 87.164062 6.476562 85.71875 6.476562 "/>
<path style=" stroke:none;fill-rule:nonzero;fill:rgb(2.745098%,20.784314%,31.764706%);fill-opacity:1;" d="M 66.097656 14.980469 C 66.886719 14.980469 67.527344 15.625 67.527344 16.417969 C 67.527344 17.214844 66.886719 17.859375 66.097656 17.859375 C 65.304688 17.859375 64.664062 17.214844 64.664062 16.417969 C 64.664062 15.625 65.304688 14.980469 66.097656 14.980469 M 66.097656 19.046875 C 67.546875 19.046875 68.71875 17.863281 68.71875 16.40625 C 68.71875 16.117188 68.636719 15.847656 68.550781 15.582031 C 68.203125 14.535156 67.253906 13.765625 66.09375 13.765625 C 65.910156 13.765625 65.75 13.835938 65.574219 13.875 C 64.382812 14.125 63.472656 15.132812 63.472656 16.40625 C 63.472656 17.863281 64.648438 19.042969 66.09375 19.042969 "/>
<path style=" stroke:none;fill-rule:nonzero;fill:rgb(2.745098%,20.784314%,31.764706%);fill-opacity:1;" d="M 64.652344 25.644531 C 64.652344 24.847656 65.292969 24.203125 66.085938 24.203125 C 66.875 24.203125 67.515625 24.847656 67.515625 25.644531 C 67.515625 26.4375 66.875 27.082031 66.085938 27.082031 C 65.292969 27.082031 64.652344 26.4375 64.652344 25.644531 M 68.695312 25.644531 C 68.695312 25.347656 68.613281 25.082031 68.527344 24.816406 C 68.183594 23.769531 67.230469 23 66.070312 23 C 65.886719 23 65.726562 23.070312 65.550781 23.105469 C 64.359375 23.359375 63.453125 24.367188 63.453125 25.640625 C 63.453125 27.097656 64.625 28.277344 66.070312 28.277344 C 67.519531 28.277344 68.691406 27.097656 68.691406 25.640625 "/>
<path style=" stroke:none;fill-rule:nonzero;fill:rgb(2.745098%,20.784314%,31.764706%);fill-opacity:1;" d="M -0.00390625 28.628906 C -0.00390625 30.6875 0.378906 31.707031 1.972656 33.015625 L 4.4375 35.082031 C 5.996094 36.371094 6.792969 36.40625 8.738281 36.40625 L 14.019531 36.40625 C 15.128906 36.40625 16.308594 36.160156 16.308594 34.730469 C 16.308594 33.261719 14.996094 33.050781 14.019531 33.050781 L 8.160156 33.050781 C 7.496094 33.050781 6.835938 32.703125 6.25 32.210938 L 4.238281 30.5 C 3.714844 30.082031 3.335938 29.734375 3.335938 29.070312 L 3.335938 24.914062 C 3.335938 24.253906 3.714844 23.902344 4.238281 23.480469 L 6.25 21.769531 C 6.839844 21.28125 7.5 20.929688 8.160156 20.929688 L 14.019531 20.929688 C 14.996094 20.929688 16.308594 20.71875 16.308594 19.25 C 16.308594 17.824219 15.128906 17.574219 14.019531 17.574219 L 8.738281 17.574219 C 6.792969 17.574219 5.996094 17.613281 4.4375 18.898438 L 1.972656 20.960938 C 0.378906 22.292969 -0.00390625 23.300781 -0.00390625 25.378906 Z M -0.00390625 28.628906 "/>
<path style=" stroke:none;fill-rule:nonzero;fill:rgb(2.745098%,20.784314%,31.764706%);fill-opacity:1;" d="M 34.351562 19.882812 C 34.351562 18.730469 34.105469 17.574219 32.683594 17.574219 C 31.257812 17.574219 31.015625 18.730469 31.015625 19.882812 L 31.015625 29.617188 L 26.109375 32.726562 C 25.796875 32.933594 25.453125 33.039062 25.066406 33.039062 L 23.960938 33.039062 C 23.160156 33.039062 22.292969 32.832031 22.015625 32.339844 C 21.738281 31.855469 21.707031 30.941406 21.671875 30.175781 L 21.324219 19.859375 C 21.289062 18.773438 21.117188 17.550781 19.691406 17.550781 C 18.167969 17.550781 17.992188 18.84375 18.023438 20.070312 L 18.371094 30.617188 C 18.4375 32.433594 18.40625 33.871094 19.902344 35.148438 C 21.007812 36.085938 22.050781 36.371094 22.988281 36.371094 L 25.453125 36.371094 C 26.351562 36.371094 27.253906 35.949219 28.332031 35.253906 L 31.039062 33.46875 L 31.039062 34.027344 C 31.039062 35.179688 31.28125 36.371094 32.703125 36.371094 C 34.476562 36.371094 34.339844 34.65625 34.339844 33.890625 Z M 34.351562 19.882812 "/>
<path style=" stroke:none;fill-rule:nonzero;fill:rgb(2.745098%,20.784314%,31.764706%);fill-opacity:1;" d="M 36.089844 34.109375 C 36.089844 35.261719 36.335938 36.417969 37.757812 36.417969 C 39.183594 36.417969 39.425781 35.261719 39.425781 34.109375 L 39.425781 25.625 L 44.070312 21.757812 C 44.664062 21.269531 45.113281 20.953125 45.738281 20.953125 L 46.710938 20.953125 C 47.511719 20.953125 48.308594 20.953125 48.722656 21.550781 C 49.070312 22.035156 49.070312 22.457031 49.070312 23.019531 C 49.070312 24.097656 49.558594 25.078125 50.769531 25.078125 C 52.195312 25.078125 52.402344 23.890625 52.402344 22.734375 C 52.402344 21.203125 52.019531 20.046875 50.910156 18.929688 C 50.011719 18.023438 48.9375 17.605469 47.652344 17.605469 L 44.976562 17.605469 C 43.933594 17.605469 42.964844 18.265625 42.03125 19.035156 L 39.425781 21.203125 L 39.425781 19.839844 C 39.425781 18.722656 39.082031 17.605469 37.757812 17.605469 C 36.234375 17.605469 36.09375 18.863281 36.09375 20.082031 Z M 36.089844 34.109375 "/>
<path style=" stroke:none;fill-rule:nonzero;fill:rgb(2.745098%,20.784314%,31.764706%);fill-opacity:1;" d="M 58.519531 12.996094 C 58.519531 11.003906 57.964844 10.652344 56.058594 10.652344 L 52.566406 10.652344 C 51.453125 10.652344 50.273438 10.898438 50.273438 12.332031 C 50.273438 13.800781 51.589844 14.011719 52.566406 14.011719 L 55.203125 14.011719 L 55.203125 33.042969 L 52.566406 33.042969 C 51.453125 33.042969 50.273438 33.289062 50.273438 34.722656 C 50.273438 36.1875 51.589844 36.398438 52.566406 36.398438 L 61.023438 36.398438 C 62 36.398438 63.316406 36.191406 63.316406 34.722656 C 63.316406 33.285156 62.136719 33.042969 61.023438 33.042969 L 58.523438 33.042969 Z M 58.519531 12.996094 "/>
</g>
</svg>
