<?xml version="1.0" encoding="UTF-8"?>
<svg xmlns="http://www.w3.org/2000/svg" xmlns:xlink="http://www.w3.org/1999/xlink" width="100px" height="px" viewBox="0 0 100 100" version="1.1">
<g id="surface1">
<path style=" stroke:none;fill-rule:nonzero;fill:rgb(29.019608%,49.411765%,74.901961%);fill-opacity:1;" d="M 20.9375 0 C 32.503906 0 41.878906 9.371094 41.878906 20.933594 C 41.878906 32.296875 32.820312 41.539062 21.527344 41.851562 C 21.527344 42.8125 21.570312 44.628906 22.117188 45.726562 C 22.871094 47.25 27.398438 50.082031 31.839844 50.082031 L 33.433594 50.082031 C 34.4375 42.945312 40.566406 37.449219 47.980469 37.449219 C 55.367188 37.449219 61.476562 42.898438 62.515625 49.992188 L 70.769531 49.992188 C 71.808594 42.898438 77.921875 37.449219 85.304688 37.449219 C 93.421875 37.449219 100 44.027344 100 52.140625 C 100 60.253906 93.421875 66.832031 85.304688 66.832031 C 77.921875 66.832031 71.808594 61.382812 70.769531 54.289062 L 62.515625 54.289062 C 61.476562 61.382812 55.367188 66.832031 47.980469 66.832031 C 40.609375 66.832031 34.507812 61.402344 33.449219 54.328125 L 31.6875 54.382812 C 28.78125 54.359375 25.714844 53.582031 23.25 51.910156 C 22.578125 51.453125 21.917969 50.972656 21.226562 50.519531 L 21.226562 51.472656 C 21.222656 51.78125 21.167969 56.417969 21.160156 61.5625 L 21.160156 62.652344 C 21.164062 66.027344 21.191406 69.507812 21.269531 72.042969 C 21.445312 77.609375 25.972656 82.101562 30.964844 83.152344 C 31.617188 83.289062 32.730469 83.304688 33.433594 83.246094 C 34.441406 76.109375 40.566406 70.621094 47.980469 70.621094 C 56.097656 70.621094 62.675781 77.195312 62.675781 85.308594 C 62.675781 93.421875 56.097656 100 47.980469 100 C 40.648438 100 34.574219 94.632812 33.46875 87.613281 L 32.199219 87.613281 C 22.652344 87.089844 16.71875 78.335938 16.820312 71.234375 C 16.953125 62.300781 16.851562 53.359375 16.851562 44.421875 L 16.851562 41.464844 C 7.246094 39.566406 0 31.097656 0 20.933594 C 0 9.371094 9.375 0 20.9375 0 Z M 47.980469 74.914062 C 42.238281 74.914062 37.582031 79.566406 37.582031 85.308594 C 37.582031 91.050781 42.238281 95.707031 47.980469 95.707031 C 53.722656 95.707031 58.378906 91.050781 58.378906 85.308594 C 58.378906 79.566406 53.722656 74.914062 47.980469 74.914062 Z M 47.980469 41.746094 C 42.238281 41.746094 37.582031 46.398438 37.582031 52.140625 C 37.582031 57.882812 42.238281 62.535156 47.980469 62.535156 C 53.722656 62.535156 58.378906 57.882812 58.378906 52.140625 C 58.378906 46.398438 53.722656 41.746094 47.980469 41.746094 Z M 85.304688 41.746094 C 79.5625 41.746094 74.90625 46.398438 74.90625 52.140625 C 74.90625 57.882812 79.5625 62.535156 85.304688 62.535156 C 91.050781 62.535156 95.703125 57.882812 95.703125 52.140625 C 95.703125 46.398438 91.050781 41.746094 85.304688 41.746094 Z M 91.226562 47.765625 C 92.046875 48.582031 92.070312 49.890625 91.292969 50.734375 L 91.230469 50.800781 L 84.859375 57.183594 C 84.050781 58 82.746094 58.027344 81.902344 57.261719 L 81.835938 57.199219 L 78.714844 54.128906 C 77.871094 53.296875 77.859375 51.9375 78.691406 51.09375 C 79.503906 50.269531 80.8125 50.238281 81.664062 51.007812 L 81.730469 51.070312 L 83.328125 52.640625 L 88.191406 47.769531 C 89.027344 46.929688 90.386719 46.925781 91.226562 47.765625 Z M 53.730469 47.734375 C 54.550781 48.550781 54.574219 49.859375 53.796875 50.703125 L 53.734375 50.769531 L 47.363281 57.152344 C 46.554688 57.96875 45.25 57.996094 44.40625 57.230469 L 44.339844 57.167969 L 41.21875 54.097656 C 40.375 53.265625 40.363281 51.90625 41.195312 51.0625 C 42.007812 50.238281 43.316406 50.207031 44.167969 50.976562 L 44.234375 51.039062 L 45.832031 52.609375 L 50.695312 47.738281 C 51.53125 46.898438 52.890625 46.894531 53.730469 47.734375 Z M 20.9375 4.292969 C 11.746094 4.292969 4.296875 11.742188 4.296875 20.933594 C 4.296875 30.125 11.746094 37.574219 20.9375 37.574219 C 30.132812 37.574219 37.582031 30.125 37.582031 20.933594 C 37.582031 11.742188 30.132812 4.292969 20.9375 4.292969 Z M 19.207031 10.988281 C 22.707031 13.09375 26.164062 15.269531 29.570312 17.515625 C 32.425781 19.398438 32.417969 22.8125 29.53125 24.703125 C 26.0625 26.972656 22.539062 29.148438 18.960938 31.230469 C 16.050781 32.925781 12.789062 30.976562 12.710938 27.578125 C 12.660156 25.390625 12.703125 23.199219 12.699219 21.011719 C 12.695312 18.878906 12.65625 16.746094 12.707031 14.617188 C 12.792969 11.007812 16.117188 9.125 19.207031 10.988281 Z M 16.898438 14.453125 L 16.898438 15.964844 C 16.898438 16.714844 16.898438 17.453125 16.898438 18.179688 L 16.898438 21.773438 C 16.898438 23.425781 16.898438 25.050781 16.902344 26.675781 C 16.902344 27.441406 17.300781 27.410156 17.816406 27.09375 C 20.789062 25.25 23.761719 23.410156 26.734375 21.574219 C 27.226562 21.269531 27.238281 20.953125 26.757812 20.648438 C 23.570312 18.644531 20.382812 16.640625 16.898438 14.453125 Z M 16.898438 14.453125 "/>
<path style=" stroke:none;fill-rule:nonzero;fill:rgb(52.156863%,70.196078%,87.45098%);fill-opacity:1;" d="M 52.042969 87.453125 C 53.226562 87.453125 54.1875 86.492188 54.1875 85.304688 C 54.1875 84.121094 53.226562 83.160156 52.042969 83.160156 C 50.855469 83.160156 49.894531 84.121094 49.894531 85.304688 C 49.894531 86.492188 50.855469 87.453125 52.042969 87.453125 "/>
<path style=" stroke:none;fill-rule:nonzero;fill:rgb(52.156863%,70.196078%,87.45098%);fill-opacity:1;" d="M 43.820312 87.453125 C 45.003906 87.453125 45.96875 86.492188 45.96875 85.304688 C 45.96875 84.121094 45.003906 83.160156 43.820312 83.160156 C 42.632812 83.160156 41.671875 84.121094 41.671875 85.304688 C 41.671875 86.492188 42.632812 87.453125 43.820312 87.453125 "/>
<path style=" stroke:none;fill-rule:nonzero;fill:rgb(52.156863%,70.196078%,87.45098%);fill-opacity:1;" d="M 85.304688 95.707031 C 79.5625 95.707031 74.90625 91.050781 74.90625 85.308594 C 74.90625 79.566406 79.5625 74.914062 85.304688 74.914062 C 91.046875 74.914062 95.703125 79.566406 95.703125 85.308594 C 95.703125 91.050781 91.046875 95.707031 85.304688 95.707031 M 85.304688 70.621094 C 77.921875 70.621094 71.808594 76.066406 70.769531 83.164062 L 68.367188 83.164062 C 67.316406 83.164062 66.46875 84.125 66.46875 85.308594 C 66.46875 86.496094 67.316406 87.457031 68.367188 87.457031 L 70.769531 87.457031 C 71.808594 94.550781 77.921875 100 85.304688 100 C 93.421875 100 100 93.421875 100 85.308594 C 100 77.195312 93.421875 70.621094 85.304688 70.621094 "/>
</g>
</svg>
