<?xml version="1.0" encoding="UTF-8"?>
<svg xmlns="http://www.w3.org/2000/svg" xmlns:xlink="http://www.w3.org/1999/xlink" width="100px" height="px" viewBox="0 0 100 100" version="1.1">
<g id="surface1">
<path style=" stroke:none;fill-rule:nonzero;fill:rgb(91.764706%,91.764706%,91.764706%);fill-opacity:1;" d="M 8.035156 8.035156 L 91.820312 8.035156 L 91.820312 91.824219 L 8.035156 91.824219 Z M 8.035156 8.035156 "/>
<path style=" stroke:none;fill-rule:nonzero;fill:rgb(1.176471%,1.176471%,99.607843%);fill-opacity:1;" d="M 15.726562 92.785156 C 15.105469 92.78125 14.546875 92.414062 14.296875 91.847656 C 14.050781 91.28125 14.160156 90.621094 14.578125 90.164062 L 58.28125 42.8125 C 58.570312 42.464844 59.007812 42.277344 59.457031 42.308594 C 59.902344 42.316406 60.320312 42.511719 60.613281 42.851562 L 74.007812 58.398438 L 90.722656 39.351562 C 91.085938 38.921875 91.65625 38.722656 92.207031 38.832031 C 92.761719 38.9375 93.214844 39.335938 93.394531 39.871094 C 93.574219 40.40625 93.449219 40.992188 93.070312 41.414062 L 75.171875 61.808594 C 74.875 62.148438 74.445312 62.339844 73.996094 62.339844 C 73.542969 62.339844 73.113281 62.140625 72.820312 61.796875 L 59.382812 46.21875 L 16.875 92.28125 C 16.578125 92.601562 16.160156 92.785156 15.726562 92.785156 Z M 15.726562 92.785156 "/>
<path style=" stroke:none;fill-rule:nonzero;fill:rgb(1.176471%,99.607843%,1.176471%);fill-opacity:1;" d="M 19.753906 67.429688 C 19.296875 67.425781 18.859375 67.222656 18.566406 66.875 L 7.035156 53.300781 C 6.476562 52.640625 6.554688 51.65625 7.214844 51.09375 C 7.871094 50.535156 8.859375 50.617188 9.417969 51.273438 L 19.757812 63.460938 L 43.679688 35.488281 C 43.972656 35.140625 44.40625 34.941406 44.859375 34.941406 C 45.3125 34.941406 45.742188 35.136719 46.039062 35.476562 L 51.003906 41.203125 L 75.75 7.710938 C 76.261719 7.015625 77.242188 6.867188 77.9375 7.382812 C 78.632812 7.894531 78.777344 8.875 78.265625 9.570312 L 52.367188 44.621094 C 52.082031 45 51.640625 45.230469 51.167969 45.246094 C 50.691406 45.28125 50.222656 45.082031 49.917969 44.710938 L 44.875 38.890625 L 20.9375 66.875 C 20.640625 67.222656 20.210938 67.425781 19.753906 67.429688 Z M 19.753906 67.429688 "/>
<path style=" stroke:none;fill-rule:nonzero;fill:rgb(99.215686%,1.176471%,1.176471%);fill-opacity:1;" d="M 91.898438 90.121094 C 91.445312 90.121094 91.015625 89.925781 90.71875 89.585938 L 67.835938 63.3125 L 52.28125 81.054688 C 51.984375 81.394531 51.554688 81.585938 51.105469 81.585938 C 50.65625 81.582031 50.226562 81.386719 49.929688 81.046875 L 7.058594 31.539062 C 6.675781 31.117188 6.550781 30.523438 6.730469 29.984375 C 6.914062 29.445312 7.371094 29.046875 7.933594 28.945312 C 8.492188 28.84375 9.0625 29.054688 9.421875 29.492188 L 51.117188 77.648438 L 66.664062 59.90625 C 66.960938 59.566406 67.390625 59.375 67.839844 59.375 C 68.292969 59.375 68.71875 59.570312 69.015625 59.914062 L 93.078125 87.535156 C 93.480469 87.996094 93.574219 88.648438 93.320312 89.207031 C 93.066406 89.765625 92.511719 90.121094 91.898438 90.121094 Z M 91.898438 90.121094 "/>
<path style=" stroke:none;fill-rule:nonzero;fill:rgb(0%,0%,0%);fill-opacity:1;" d="M 90.625 9.375 L 90.625 90.625 L 9.375 90.625 L 9.375 9.375 Z M 93.75 6.25 L 6.25 6.25 L 6.25 93.75 L 93.75 93.75 Z M 93.75 6.25 "/>
</g>
</svg>
